{"title":"Star Trek Beyond (2016)HQCam.H264","uid":15597407,"size":752393163,"categoryP":"video","categoryS":"movies","magnet":"?xt=urn:btih:609f0c7177e7aa65a79693397e233dbcac583183&amp;dn=Star+Trek+Beyond+%282016%29HQCam.H264&amp;tr=udp%3A%2F%2Ftracker.leechers-paradise.org%3A6969&amp;tr=udp%3A%2F%2Fzer0day.ch%3A1337&amp;tr=udp%3A%2F%2Fopen.demonii.com%3A1337&amp;tr=udp%3A%2F%2Ftracker.coppersurfer.tk%3A6969&amp;tr=udp%3A%2F%2Fexodus.desync.com%3A6969","seeders":4,"leechers":1,"uploader":"xxTheOnexx","files":17,"time":1471589472,"description":"Again, props to the Extratorrent team for bringing another outstanding Cam, I added some of my own touches and it came extremely good. There is one part of the movie that doesn't look to good, but overall the quality came out great when I got thru touching it up. \r\n\r\n\r\n                 Screeens\r\n&gt;&gt;&gt;&gt;&gt;&gt;&gt;&gt;&gt;&gt;&gt;  http://postimg.org/gallery/fg90urqo/  &lt;&lt;&lt;&lt;&lt;&lt;&lt;&lt;&lt;&lt;\r\n\r\n\r\n\r\n\r\n\r\nCodec ID                  : mp42\r\nFile size                 : 671 MiB\r\nDuration                  : 1h 53mn\r\nOverall bit rate mode     : Variable\r\nOverall bit rate          : 828 Kbps\r\n\r\n\r\nVideo\r\n-----\r\nID                        : 1\r\nFormat                    : AVC\r\nFormat/Info               : Advanced Video Codec\r\nFormat profile            :   \r\nFormat settings, CABAC    : Yes\r\nFormat settings, ReFrames : 3 frames\r\nCodec ID                  : avc1\r\nCodec ID/Info             : Advanced Video Coding\r\nDuration                  : 1h 53mn\r\nSource duration           : 1h 53mn\r\nBit rate                  : 694 Kbps\r\nWidth                     : 720 pixels\r\nHeight                    : 304 pixels\r\nDisplay aspect ratio      : 2.35:1\r\nFrame rate mode           : Variable\r\nFrame rate                : 29.970 fps\r\nMinimum frame rate        : 29.970 fps\r\nMaximum frame rate        : 30.000 fps\r\nStandard                  : NTSC\r\nColor space               : YUV\r\nChroma subsampling        : 4:2:0\r\nBit depth                 : 8 bits\r\nScan type                 : Progressive\r\nBits/(Pixel*Frame)        : 0.106\r\nStream size               : 562 MiB (84%)\r\nSource stream size        : 562 MiB (84%)\r\nLanguage                  : English\r\n\r\n\r\nAudio\r\n-----\r\nID                        : 2\r\nFormat                    : AAC\r\nFormat/Info               : Advanced Audio Codec\r\nFormat profile            : LC\r\nCodec ID                  : 40\r\nDuration                  : 1h 53mn\r\nSource duration           : 1h 53mn\r\nBit rate mode             : Variable\r\nBit rate                  : 125 Kbps\r\nMaximum bit rate          : 213 Kbps\r\nChannel(s)                : 2 channels\r\nChannel positions         : Front: L R\r\nSampling rate             : 48.0 KHz\r\nCompression mode          : Lossy\r\nStream size               : 102 MiB (15%)\r\nSource stream size        : 102 MiB (15%)\r\nLanguage                  : English","torrent":{"xt":"urn:btih:609f0c7177e7aa65a79693397e233dbcac583183","amp;dn":"Star+Trek+Beyond+%282016%29HQCam.H264","amp;tr":["udp%3A%2F%2Ftracker.leechers-paradise.org%3A6969","udp%3A%2F%2Fzer0day.ch%3A1337","udp%3A%2F%2Fopen.demonii.com%3A1337","udp%3A%2F%2Ftracker.coppersurfer.tk%3A6969","udp%3A%2F%2Fexodus.desync.com%3A6969"],"infoHash":"609f0c7177e7aa65a79693397e233dbcac583183","infoHashBuffer":{"type":"Buffer","data":[96,159,12,113,119,231,170,101,167,150,147,57,126,35,61,188,172,88,49,131]},"announce":[],"urlList":[]}}